<svg xmlns="http://www.w3.org/2000/svg" viewBox="0 0 64 64" fill="none">
  <!-- Background -->
  <rect width="64" height="64" rx="14" fill="#22c55e"/>

  <!-- Plate -->
  <circle cx="32" cy="32" r="22" fill="white" opacity="0.95"/>

  <!-- Food -->
  <ellipse cx="32" cy="30" rx="12" ry="8" fill="#fbbf24"/>
  <ellipse cx="32" cy="28" rx="9" ry="6" fill="#fcd34d"/>

  <!-- Vegetables -->
  <circle cx="24" cy="38" r="4" fill="#22c55e"/>
  <circle cx="40" cy="38" r="4" fill="#22c55e"/>
  <circle cx="32" cy="42" r="3" fill="#16a34a"/>

  <!-- Steam -->
  <path d="M27 12 Q25 8 27 5" stroke="white" stroke-width="2" stroke-linecap="round" fill="none" opacity="0.6"/>
  <path d="M32 10 Q30 6 32 3" stroke="white" stroke-width="2" stroke-linecap="round" fill="none" opacity="0.6"/>
  <path d="M37 12 Q35 8 37 5" stroke="white" stroke-width="2" stroke-linecap="round" fill="none" opacity="0.6"/>

  <!-- AI sparkle -->
  <circle cx="52" cy="12" r="8" fill="url(#sparkleGrad)"/>
  <path d="M52 6 L53 10 L57 11 L53 12 L52 16 L51 12 L47 11 L51 10 Z" fill="white"/>

  <defs>
    <linearGradient id="sparkleGrad" x1="0%" y1="0%" x2="100%" y2="100%">
      <stop offset="0%" style="stop-color:#a855f7"/>
      <stop offset="100%" style="stop-color:#ec4899"/>
    </linearGradient>
  </defs>
</svg>
