<svg xmlns="http://www.w3.org/2000/svg" viewBox="0 0 64 64" fill="none">
  <!-- Background circle - brand green -->
  <circle cx="32" cy="32" r="30" fill="#22c55e"/>

  <!-- White plate -->
  <circle cx="32" cy="34" r="20" fill="#ffffff"/>
  <circle cx="32" cy="34" r="15" fill="#f8fafc" stroke="#f1f5f9" stroke-width="1"/>

  <!-- Chicken (golden) -->
  <ellipse cx="32" cy="31" rx="8" ry="5" fill="#fbbf24"/>
  <ellipse cx="32" cy="29" rx="6" ry="4" fill="#fcd34d"/>

  <!-- Peas (green) -->
  <circle cx="40" cy="38" r="2.5" fill="#22c55e"/>
  <circle cx="43" cy="35" r="2" fill="#4ade80"/>
  <circle cx="42" cy="40" r="1.8" fill="#16a34a"/>

  <!-- Carrots (orange) -->
  <rect x="21" y="32" width="3" height="8" rx="1.5" fill="#f97316" transform="rotate(-25 22 36)"/>
  <rect x="24" y="34" width="2.5" height="6" rx="1.25" fill="#fb923c" transform="rotate(-15 25 37)"/>

  <!-- Broccoli -->
  <circle cx="24" cy="40" r="2.5" fill="#15803d"/>
  <circle cx="21" cy="37" r="2" fill="#22c55e"/>

  <!-- Steam lines -->
  <path d="M28 14 Q26 10 28 6" stroke="#ffffff" stroke-width="2" stroke-linecap="round" fill="none" opacity="0.9"/>
  <path d="M32 12 Q30 8 32 4" stroke="#ffffff" stroke-width="2" stroke-linecap="round" fill="none" opacity="0.9"/>
  <path d="M36 14 Q34 10 36 6" stroke="#ffffff" stroke-width="2" stroke-linecap="round" fill="none" opacity="0.9"/>
</svg>