<svg xmlns="http://www.w3.org/2000/svg" viewBox="0 0 240 60" fill="none">
  <!-- Main Plate -->
  <circle cx="30" cy="30" r="26" fill="#f0fdf4" stroke="#22c55e" stroke-width="2.5"/>

  <!-- Food on plate - simplified -->
  <ellipse cx="30" cy="28" rx="14" ry="10" fill="#fbbf24"/>
  <ellipse cx="30" cy="26" rx="11" ry="7" fill="#fcd34d"/>

  <!-- Vegetables (green accent) -->
  <circle cx="20" cy="36" r="5" fill="#22c55e"/>
  <circle cx="40" cy="36" r="5" fill="#22c55e"/>
  <circle cx="30" cy="40" r="4" fill="#16a34a"/>

  <!-- Steam -->
  <path d="M24 10 Q22 5 24 2" stroke="#22c55e" stroke-width="2" stroke-linecap="round" fill="none" opacity="0.5"/>
  <path d="M30 8 Q28 3 30 0" stroke="#22c55e" stroke-width="2" stroke-linecap="round" fill="none" opacity="0.5"/>
  <path d="M36 10 Q34 5 36 2" stroke="#22c55e" stroke-width="2" stroke-linecap="round" fill="none" opacity="0.5"/>

  <!-- Text -->
  <text x="66" y="38" font-family="system-ui, -apple-system, sans-serif" font-size="26" font-weight="800" fill="#111827">Best<tspan fill="#22c55e">Meal</tspan>Mate</text>

  <!-- AI Badge -->
  <g transform="translate(218, 8)">
    <circle cx="12" cy="12" r="10" fill="url(#aiGradient)"/>
    <path d="M12 5 L13.5 10 L18 11 L13.5 12.5 L12 18 L10.5 12.5 L6 11 L10.5 10 Z" fill="white"/>
  </g>

  <defs>
    <linearGradient id="aiGradient" x1="0%" y1="0%" x2="100%" y2="100%">
      <stop offset="0%" style="stop-color:#a855f7"/>
      <stop offset="100%" style="stop-color:#ec4899"/>
    </linearGradient>
  </defs>
</svg>
