<svg xmlns="http://www.w3.org/2000/svg" viewBox="0 0 200 60" fill="none">
  <!-- Plate with steam -->
  <circle cx="30" cy="32" r="18" fill="#FED7AA" stroke="#EA580C" stroke-width="2"/>
  <ellipse cx="30" cy="32" rx="12" ry="8" fill="#FDBA74"/>

  <!-- Steam lines -->
  <path d="M24 18 Q22 14 24 10" stroke="#EA580C" stroke-width="2" stroke-linecap="round" fill="none"/>
  <path d="M30 16 Q28 12 30 8" stroke="#EA580C" stroke-width="2" stroke-linecap="round" fill="none"/>
  <path d="M36 18 Q34 14 36 10" stroke="#EA580C" stroke-width="2" stroke-linecap="round" fill="none"/>

  <!-- Fork -->
  <path d="M18 26 L18 38 M16 26 L16 30 M18 26 L18 30 M20 26 L20 30" stroke="#EA580C" stroke-width="1.5" stroke-linecap="round"/>

  <!-- Heart in center -->
  <path d="M30 28 C28 26 25 26 25 29 C25 32 30 35 30 35 C30 35 35 32 35 29 C35 26 32 26 30 28Z" fill="#EA580C"/>

  <!-- Text: Best -->
  <text x="56" y="28" font-family="Arial, sans-serif" font-size="16" font-weight="bold" fill="#1F2937">Best</text>

  <!-- Text: Meal -->
  <text x="56" y="46" font-family="Arial, sans-serif" font-size="16" font-weight="bold" fill="#EA580C">Meal</text>

  <!-- Text: Mate -->
  <text x="100" y="46" font-family="Arial, sans-serif" font-size="16" font-weight="bold" fill="#1F2937">Mate</text>
</svg>
