<svg xmlns="http://www.w3.org/2000/svg" viewBox="0 0 1200 630" fill="none">
  <defs>
    <linearGradient id="bgGradient" x1="0%" y1="0%" x2="100%" y2="100%">
      <stop offset="0%" style="stop-color:#f0fdf4"/>
      <stop offset="100%" style="stop-color:#dcfce7"/>
    </linearGradient>
    <linearGradient id="iconGrad" x1="0%" y1="0%" x2="100%" y2="100%">
      <stop offset="0%" style="stop-color:#22c55e"/>
      <stop offset="100%" style="stop-color:#16a34a"/>
    </linearGradient>
    <linearGradient id="aiGradient" x1="0%" y1="0%" x2="100%" y2="100%">
      <stop offset="0%" style="stop-color:#a855f7"/>
      <stop offset="100%" style="stop-color:#ec4899"/>
    </linearGradient>
  </defs>

  <rect width="1200" height="630" fill="url(#bgGradient)"/>

  <!-- Decorative circles -->
  <circle cx="100" cy="100" r="200" fill="#22c55e" opacity="0.08"/>
  <circle cx="1100" cy="530" r="250" fill="#22c55e" opacity="0.08"/>

  <!-- Logo Icon -->
  <g transform="translate(100, 165)">
    <!-- Green background -->
    <rect width="300" height="300" rx="60" fill="url(#iconGrad)"/>

    <!-- Fork (left) -->
    <g transform="translate(60, 50)">
      <rect x="0" y="0" width="14" height="130" rx="7" fill="white"/>
      <rect x="-14" y="0" width="8" height="45" rx="4" fill="white"/>
      <rect x="20" y="0" width="8" height="45" rx="4" fill="white"/>
    </g>

    <!-- Knife (right) -->
    <g transform="translate(210, 50)">
      <path d="M0 0 L28 0 L28 40 C28 55 14 65 14 65 L14 130 L0 130 L0 65 C0 65 0 55 0 40 Z" fill="white"/>
    </g>

    <!-- Center heart -->
    <circle cx="150" cy="180" r="65" fill="white" opacity="0.95"/>
    <path d="M150 150 C138 130 112 138 112 162 C112 186 150 220 150 220 C150 220 188 186 188 162 C188 138 162 130 150 150" fill="#ef4444"/>

    <!-- AI sparkle badge -->
    <circle cx="260" cy="40" r="40" fill="url(#aiGradient)"/>
    <path d="M260 15 L265 35 L285 40 L265 45 L260 65 L255 45 L235 40 L255 35 Z" fill="white"/>
  </g>

  <!-- Text -->
  <text x="480" y="280" font-family="system-ui, -apple-system, sans-serif" font-size="90" font-weight="800" fill="#111827">Best<tspan fill="#22c55e">Meal</tspan>Mate</text>

  <text x="480" y="360" font-family="system-ui, -apple-system, sans-serif" font-size="36" fill="#4b5563">AI-Powered Meal Planning for Real Families</text>

  <!-- Feature pills -->
  <g transform="translate(480, 420)">
    <rect x="0" y="0" width="150" height="50" rx="25" fill="#22c55e"/>
    <text x="75" y="33" font-family="system-ui, sans-serif" font-size="18" font-weight="600" fill="white" text-anchor="middle">All Diets</text>

    <rect x="170" y="0" width="170" height="50" rx="25" fill="#22c55e"/>
    <text x="255" y="33" font-family="system-ui, sans-serif" font-size="18" font-weight="600" fill="white" text-anchor="middle">Smart Pantry</text>

    <rect x="360" y="0" width="150" height="50" rx="25" fill="#22c55e"/>
    <text x="435" y="33" font-family="system-ui, sans-serif" font-size="18" font-weight="600" fill="white" text-anchor="middle">Zero Waste</text>
  </g>

  <!-- URL -->
  <text x="480" y="560" font-family="system-ui, -apple-system, sans-serif" font-size="28" fill="#22c55e" font-weight="600">www.bestmealmate.com</text>
</svg>
